<svg xmlns="http://www.w3.org/2000/svg" viewBox="0 0 300 300" fill-rule="evenodd" stroke-linecap="round" stroke-miterlimit="19"><style>.B{fill-rule:nonzero}.C{stroke-miterlimit:10}.D{stroke-width:3.311}.E{stroke:#fff}.F{fill:none}.G{stroke-linecap:butt}.H{fill:#fff}</style><g class="E"><circle cx="150" cy="150" r="150" fill="#0d1117" stroke-width="2.7" transform="matrix(.98892 0 0 .98892 1.662 1.662)"/><g class="B"><g class="C D"><path d="M172.044 73.049c0-12.178-9.87-22.044-22.044-22.044s-22.044 9.866-22.044 22.044 9.87 22.04 22.044 22.04 22.044-9.866 22.044-22.04z" fill="#359191"/><path d="M105.52 139.573c0-12.178-9.866-22.044-22.044-22.044s-22.044 9.866-22.044 22.044 9.87 22.039 22.044 22.039 22.044-9.865 22.044-22.039z" fill="#ff9832"/></g><g stroke-linejoin="round" stroke-miterlimit="2" stroke-width="3.335"><path d="M238.567 139.573c0-12.178-9.869-22.044-22.043-22.044s-22.044 9.866-22.044 22.044 9.87 22.039 22.044 22.039 22.043-9.865 22.043-22.039z" fill="#8080ff"/><path d="M238.567 233.65c0-12.173-9.869-22.043-22.043-22.043s-22.044 9.87-22.044 22.043 9.87 22.043 22.044 22.043 22.043-9.869 22.043-22.043z" fill="#fe4a4a"/><path d="M105.52 233.65c0-12.173-9.866-22.043-22.044-22.043s-22.044 9.87-22.044 22.043 9.87 22.043 22.044 22.043 22.044-9.869 22.044-22.043z" fill="#e25986"/></g></g><path d="M143.869 50.158c-9.902-36.961 22.168-36.961 14.234-7.345" class="C D F G"/></g><path d="M156.417 49.094l7.719-8.703-6.033 2.421-4.014-5.117" class="B H"/><path d="M172.891 79.181c20.057 5.371 32.126 17.441 35.821 31.218" class="C D E F G"/><path d="M210.393 116.682l2.334-11.394-4.016 5.111-6.037-2.419" class="B H"/><path d="M89.613 116.682c5.371-20.06 17.441-32.13 31.218-35.82" class="C D E F G"/><path d="M127.114 79.181l-11.394-2.335 5.111 4.016-2.419 6.036" class="B H"/><path d="M196.002 127.724c-31.071-17.938-60.932-17.938-86.372-3.255" class="C D E F G"/><path d="M103.999 127.724l11.611-.697-5.981-2.558.778-6.452" class="B H"/><path d="M103.999 151.418c31.071 17.942 60.932 17.942 86.371 3.254" class="C D E F G"/><path d="M196.002 151.418l-11.608.696 5.976 2.558-.777 6.456" class="B H"/><path d="M83.477 163.268v40.185" class="C D E F G"/><path d="M83.477 209.951l5.203-10.402-5.203 3.903-5.203-3.903" class="B H"/><path d="M216.524 163.268v40.185" class="C D E F G"/><path d="M216.524 209.951l5.203-10.402-5.203 3.903-5.202-3.903" class="B H"/><path d="M103.999 245.5c31.071 17.937 60.932 17.937 86.371 3.249" class="C D E F G"/><path d="M196.002 245.5l-11.608.695 5.976 2.554-.777 6.456" class="B H"/><path d="M196.002 221.801c-31.071-17.938-60.932-17.938-86.372-3.25" class="C D E F G"/><path d="M103.999 221.801l11.611-.697-5.981-2.553.778-6.456" class="B H"/></svg>